<svg xmlns="http://www.w3.org/2000/svg" viewBox="0 0 120 120">
  <circle cx="60" cy="60" r="60" fill="#0F1B2D"/>
  <circle cx="60" cy="45" r="22" fill="#F06B5D"/>
  <circle cx="60" cy="45" r="18" fill="#fde8e4"/>
  <ellipse cx="60" cy="110" rx="35" ry="30" fill="#F06B5D"/>
  <circle cx="53" cy="43" r="2" fill="#0F1B2D"/>
  <circle cx="67" cy="43" r="2" fill="#0F1B2D"/>
  <path d="M55 50 Q60 55 65 50" stroke="#F06B5D" stroke-width="1.5" fill="none"/>
  <path d="M38 35 Q45 18 60 20 Q75 18 82 35" stroke="#5a3825" stroke-width="0" fill="#5a3825"/>
  <path d="M40 38 Q48 22 60 24 Q72 22 80 38 L78 40 Q70 28 60 30 Q50 28 42 40Z" fill="#3d2415"/>
  <rect x="35" y="42" width="8" height="3" rx="1.5" fill="#555"/>
  <rect x="77" y="42" width="8" height="3" rx="1.5" fill="#555"/>
  <rect x="43" y="40" width="14" height="7" rx="3" stroke="#c97" stroke-width="0.8" fill="none"/>
  <rect x="63" y="40" width="14" height="7" rx="3" stroke="#c97" stroke-width="0.8" fill="none"/>
  <text x="60" y="105" text-anchor="middle" fill="white" font-size="11" font-weight="bold" font-family="sans-serif">SZ</text>
</svg>
